<svg width="45" height="48" viewBox="0 0 45 48" fill="none" xmlns="http://www.w3.org/2000/svg">
<path d="M16.7179 39.9025C6.20513 43.0563 6.20513 34.6461 2 33.5948M31.4359 46.2102V38.0733C31.5148 37.0707 31.3793 36.0628 31.0385 35.1166C30.6978 34.1704 30.1595 33.3076 29.4595 32.5856C36.0615 31.8497 43 29.3476 43 17.8676C42.9995 14.9321 41.8703 12.1091 39.8462 9.983C40.8046 7.41473 40.7369 4.57594 39.6569 2.05633C39.6569 2.05633 37.1759 1.32044 31.4359 5.16813C26.6168 3.86206 21.537 3.86206 16.7179 5.16813C10.9779 1.32044 8.49692 2.05633 8.49692 2.05633C7.417 4.57594 7.34923 7.41473 8.30769 9.983C6.26847 12.1249 5.13812 14.9734 5.15385 17.9307C5.15385 29.3266 12.0923 31.8286 18.6944 32.6486C18.0026 33.3635 17.4691 34.2159 17.1286 35.1505C16.7881 36.0851 16.6482 37.081 16.7179 38.0733V46.2102" stroke="white" stroke-width="3" stroke-linecap="round" stroke-linejoin="round"/>
</svg>
