<svg width="45" height="45" viewBox="0 0 45 45" fill="none" xmlns="http://www.w3.org/2000/svg">
<path d="M32.75 2H12.25C6.58908 2 2 6.58908 2 12.25V32.75C2 38.4109 6.58908 43 12.25 43H32.75C38.4109 43 43 38.4109 43 32.75V12.25C43 6.58908 38.4109 2 32.75 2Z" stroke="white" stroke-width="3" stroke-linecap="round" stroke-linejoin="round"/>
<path d="M30.7 21.2085C30.953 22.9146 30.6616 24.6571 29.8672 26.188C29.0728 27.7189 27.8159 28.9604 26.2753 29.7358C24.7347 30.5113 22.9888 30.7812 21.2859 30.5072C19.5831 30.2332 18.01 29.4292 16.7904 28.2096C15.5708 26.99 14.7668 25.4169 14.4928 23.714C14.2188 22.0112 14.4887 20.2653 15.2642 18.7247C16.0396 17.1841 17.2811 15.9272 18.812 15.1328C20.3429 14.3384 22.0854 14.047 23.7915 14.3C25.5318 14.5581 27.1429 15.369 28.387 16.613C29.631 17.8571 30.4419 19.4682 30.7 21.2085Z" stroke="white" stroke-width="3" stroke-linecap="round" stroke-linejoin="round"/>
<path d="M33.7749 11.225H33.7954" stroke="white" stroke-width="3" stroke-linecap="round" stroke-linejoin="round"/>
</svg>
